# MagicaVoxel @ Ephtracy

# group
o 

# material
mtllib Tile4.mtl
usemtl palette

# normals
vn -1 0 0
vn 1 0 0
vn 0 0 1
vn 0 0 -1
vn 0 -1 0
vn 0 1 0

# texcoords
vt 0.0839844 0.5
vt 0.369141 0.5
vt 0.744141 0.5
vt 0.791016 0.5

# verts
v 0 2 0
v 0 2 -2
v 0 2.5 0
v 0 2.5 -2
v 2 2 0
v 2 2 -2
v 2 2.4 -0.9
v 2 2.4 -1.3
v 2 2.5 0
v 2 2.5 -0.9
v 2 2.5 -1.3
v 2 2.5 -2
v 0 2 0
v 0 2.5 0
v 0.8 2 0
v 0.8 2.5 0
v 2 2 0
v 2 2.5 0
v 0 2 -2
v 0 2.5 -2
v 0.5 2.1 -2
v 0.5 2.5 -2
v 0.8 2 -2
v 0.8 2.1 -2
v 2 2 -2
v 2 2.5 -2
v 0 2 0
v 0.8 2 0
v 2 2 0
v 0.8 2 -0.1
v 1.6 2 -0.1
v 0.8 2 -1.1
v 1.3 2 -1.1
v 1.4 2 -1.2
v 1.6 2 -1.2
v 1.3 2 -1.6
v 1.4 2 -1.6
v 0 2 -2
v 0.8 2 -2
v 2 2 -2
v 0 2.5 0
v 0.8 2.5 0
v 2 2.5 0
v 0.7 2.5 -0.3
v 0.8 2.5 -0.3
v 1.4 2.5 -0.4
v 1.7 2.5 -0.4
v 0.5 2.5 -0.6
v 0.7 2.5 -0.6
v 1.4 2.5 -0.6
v 1.7 2.5 -0.6
v 1.8 2.5 -0.9
v 2 2.5 -0.9
v 1.4 2.5 -1.1
v 1.5 2.5 -1.1
v 1.4 2.5 -1.2
v 1.5 2.5 -1.2
v 1.8 2.5 -1.3
v 2 2.5 -1.3
v 0.9 2.5 -1.4
v 1 2.5 -1.4
v 1 2.5 -1.5
v 1.1 2.5 -1.5
v 0.9 2.5 -1.6
v 1.1 2.5 -1.6
v 1.5 2.5 -1.8
v 1.6 2.5 -1.8
v 1.5 2.5 -1.9
v 1.6 2.5 -1.9
v 0 2.5 -2
v 0.5 2.5 -2
v 2 2.5 -2

# faces
f 3/2/1 2/2/1 1/2/1
f 4/2/1 2/2/1 3/2/1
f 5/4/2 6/4/2 7/4/2
f 7/4/2 6/4/2 8/4/2
f 5/4/2 7/4/2 9/4/2
f 7/3/2 8/3/2 10/3/2
f 9/4/2 7/4/2 10/4/2
f 8/4/2 6/4/2 11/4/2
f 10/3/2 8/3/2 11/3/2
f 11/4/2 6/4/2 12/4/2
f 15/2/3 14/2/3 13/2/3
f 16/2/3 14/2/3 15/2/3
f 17/4/3 16/4/3 15/4/3
f 18/4/3 16/4/3 17/4/3
f 19/2/4 20/2/4 21/2/4
f 21/2/4 20/2/4 22/2/4
f 19/2/4 21/2/4 23/2/4
f 21/4/4 22/4/4 24/4/4
f 23/2/4 21/2/4 24/2/4
f 23/4/4 24/4/4 25/4/4
f 24/4/4 22/4/4 26/4/4
f 25/4/4 24/4/4 26/4/4
f 30/2/5 28/2/5 27/2/5
f 30/4/5 29/4/5 28/4/5
f 31/4/5 29/4/5 30/4/5
f 32/2/5 30/2/5 27/2/5
f 32/2/5 31/2/5 30/2/5
f 33/2/5 31/2/5 32/2/5
f 34/2/5 31/2/5 33/2/5
f 35/4/5 29/4/5 31/4/5
f 35/2/5 31/2/5 34/2/5
f 36/2/5 34/2/5 33/2/5
f 36/4/5 33/4/5 32/4/5
f 37/4/5 35/4/5 34/4/5
f 37/2/5 34/2/5 36/2/5
f 38/2/5 32/2/5 27/2/5
f 39/4/5 36/4/5 32/4/5
f 39/2/5 32/2/5 38/2/5
f 39/4/5 37/4/5 36/4/5
f 40/4/5 29/4/5 35/4/5
f 40/4/5 37/4/5 39/4/5
f 40/4/5 35/4/5 37/4/5
f 41/2/6 42/2/6 44/2/6
f 42/4/6 43/4/6 45/4/6
f 44/2/6 42/2/6 45/2/6
f 44/4/6 45/4/6 46/4/6
f 45/4/6 43/4/6 46/4/6
f 46/4/6 43/4/6 47/4/6
f 41/2/6 44/2/6 48/2/6
f 44/4/6 46/4/6 49/4/6
f 48/2/6 44/2/6 49/2/6
f 46/3/6 47/3/6 50/3/6
f 49/4/6 46/4/6 50/4/6
f 47/4/6 43/4/6 51/4/6
f 50/3/6 47/3/6 51/3/6
f 49/4/6 50/4/6 52/4/6
f 51/4/6 43/4/6 52/4/6
f 50/4/6 51/4/6 52/4/6
f 48/4/6 49/4/6 52/4/6
f 52/4/6 43/4/6 53/4/6
f 48/4/6 52/4/6 54/4/6
f 54/4/6 52/4/6 55/4/6
f 48/4/6 54/4/6 56/4/6
f 54/1/6 55/1/6 56/1/6
f 55/4/6 52/4/6 57/4/6
f 56/1/6 55/1/6 57/1/6
f 52/3/6 53/3/6 58/3/6
f 57/4/6 52/4/6 58/4/6
f 56/4/6 57/4/6 58/4/6
f 58/3/6 53/3/6 59/3/6
f 48/4/6 56/4/6 60/4/6
f 56/4/6 58/4/6 60/4/6
f 58/4/6 59/4/6 60/4/6
f 60/4/6 59/4/6 61/4/6
f 60/1/6 61/1/6 62/1/6
f 61/4/6 59/4/6 62/4/6
f 62/4/6 59/4/6 63/4/6
f 48/4/6 60/4/6 64/4/6
f 60/1/6 62/1/6 64/1/6
f 62/1/6 63/1/6 64/1/6
f 63/4/6 59/4/6 65/4/6
f 64/1/6 63/1/6 65/1/6
f 64/4/6 65/4/6 66/4/6
f 65/4/6 59/4/6 66/4/6
f 66/4/6 59/4/6 67/4/6
f 64/4/6 66/4/6 68/4/6
f 66/3/6 67/3/6 68/3/6
f 67/4/6 59/4/6 69/4/6
f 68/3/6 67/3/6 69/3/6
f 41/2/6 48/2/6 70/2/6
f 48/4/6 64/4/6 71/4/6
f 70/2/6 48/2/6 71/2/6
f 64/4/6 68/4/6 71/4/6
f 68/4/6 69/4/6 71/4/6
f 69/4/6 59/4/6 72/4/6
f 71/4/6 69/4/6 72/4/6
