# MagicaVoxel @ Ephtracy

# group
o 

# material
mtllib Tile5.mtl
usemtl palette

# normals
vn -1 0 0
vn 1 0 0
vn 0 0 1
vn 0 0 -1
vn 0 -1 0
vn 0 1 0

# texcoords
vt 0.0136719 0.5
vt 0.0839844 0.5
vt 0.369141 0.5
vt 0.744141 0.5
vt 0.791016 0.5

# verts
v 0 2 0
v 0 2 -1.2
v 0 2 -2
v 0 2.4 -0.9
v 0 2.4 -1.2
v 0 2.4 -1.5
v 0 2.4 -1.6
v 0 2.5 0
v 0 2.5 -0.9
v 0 2.5 -1.5
v 0 2.5 -1.6
v 0 2.5 -2
v 2 2 0
v 2 2 -2
v 2 2.4 0
v 2 2.4 -0.8
v 2 2.5 0
v 2 2.5 -0.8
v 2 2.5 -2
v 0 2 0
v 0 2.5 0
v 0.8 2 0
v 0.8 2.4 0
v 2 2 0
v 2 2.4 0
v 2 2.5 0
v 0 2 -2
v 0 2.5 -2
v 2 2 -2
v 2 2.5 -2
v 0 2 0
v 0.8 2 0
v 2 2 0
v 0.8 2 -0.1
v 1.6 2 -0.1
v 0.8 2 -1.1
v 1.3 2 -1.1
v 0 2 -1.2
v 0.1 2 -1.2
v 1.4 2 -1.2
v 1.6 2 -1.2
v 0.1 2 -1.3
v 0.5 2 -1.3
v 0.5 2 -1.6
v 0.8 2 -1.6
v 1.3 2 -1.6
v 1.4 2 -1.6
v 0 2 -2
v 2 2 -2
v 0 2.5 0
v 2 2.5 0
v 1.5 2.5 -0.8
v 2 2.5 -0.8
v 0 2.5 -0.9
v 0.3 2.5 -0.9
v 0.5 2.5 -1.2
v 1.5 2.5 -1.2
v 0.3 2.5 -1.3
v 0.5 2.5 -1.3
v 0.9 2.5 -1.4
v 1 2.5 -1.4
v 0 2.5 -1.5
v 0.1 2.5 -1.5
v 1 2.5 -1.5
v 1.1 2.5 -1.5
v 0 2.5 -1.6
v 0.1 2.5 -1.6
v 0.4 2.5 -1.6
v 0.5 2.5 -1.6
v 0.9 2.5 -1.6
v 1.1 2.5 -1.6
v 0.4 2.5 -1.7
v 0.5 2.5 -1.7
v 1.1 2.5 -1.7
v 1.2 2.5 -1.7
v 1 2.5 -1.8
v 1.1 2.5 -1.8
v 1.5 2.5 -1.8
v 1.6 2.5 -1.8
v 1 2.5 -1.9
v 1.2 2.5 -1.9
v 1.5 2.5 -1.9
v 1.6 2.5 -1.9
v 0 2.5 -2
v 2 2.5 -2

# faces
f 4/3/1 2/3/1 1/3/1
f 5/5/1 3/5/1 2/5/1
f 5/3/1 2/3/1 4/3/1
f 6/5/1 3/5/1 5/5/1
f 7/5/1 3/5/1 6/5/1
f 8/3/1 4/3/1 1/3/1
f 9/5/1 5/5/1 4/5/1
f 9/3/1 4/3/1 8/3/1
f 9/5/1 6/5/1 5/5/1
f 10/1/1 7/1/1 6/1/1
f 10/5/1 6/5/1 9/5/1
f 11/5/1 3/5/1 7/5/1
f 11/1/1 7/1/1 10/1/1
f 12/5/1 3/5/1 11/5/1
f 13/5/2 14/5/2 15/5/2
f 15/5/2 14/5/2 16/5/2
f 15/3/2 16/3/2 17/3/2
f 16/5/2 14/5/2 18/5/2
f 17/3/2 16/3/2 18/3/2
f 18/5/2 14/5/2 19/5/2
f 22/3/3 21/3/3 20/3/3
f 23/3/3 21/3/3 22/3/3
f 24/5/3 23/5/3 22/5/3
f 25/3/3 21/3/3 23/3/3
f 25/5/3 23/5/3 24/5/3
f 26/3/3 21/3/3 25/3/3
f 27/5/4 28/5/4 29/5/4
f 29/5/4 28/5/4 30/5/4
f 34/3/5 32/3/5 31/3/5
f 34/5/5 33/5/5 32/5/5
f 35/5/5 33/5/5 34/5/5
f 36/3/5 34/3/5 31/3/5
f 36/3/5 35/3/5 34/3/5
f 37/3/5 35/3/5 36/3/5
f 38/3/5 36/3/5 31/3/5
f 39/3/5 36/3/5 38/3/5
f 40/3/5 35/3/5 37/3/5
f 41/5/5 33/5/5 35/5/5
f 41/3/5 35/3/5 40/3/5
f 42/3/5 36/3/5 39/3/5
f 42/5/5 39/5/5 38/5/5
f 43/3/5 36/3/5 42/3/5
f 44/5/5 43/5/5 42/5/5
f 44/3/5 36/3/5 43/3/5
f 45/5/5 37/5/5 36/5/5
f 45/3/5 36/3/5 44/3/5
f 46/3/5 40/3/5 37/3/5
f 46/5/5 37/5/5 45/5/5
f 47/5/5 41/5/5 40/5/5
f 47/3/5 40/3/5 46/3/5
f 48/5/5 45/5/5 44/5/5
f 48/5/5 44/5/5 42/5/5
f 48/5/5 47/5/5 46/5/5
f 48/5/5 42/5/5 38/5/5
f 48/5/5 46/5/5 45/5/5
f 49/5/5 41/5/5 47/5/5
f 49/5/5 47/5/5 48/5/5
f 49/5/5 33/5/5 41/5/5
f 50/3/6 51/3/6 52/3/6
f 52/3/6 51/3/6 53/3/6
f 50/3/6 52/3/6 54/3/6
f 54/3/6 52/3/6 55/3/6
f 55/3/6 52/3/6 56/3/6
f 52/5/6 53/5/6 57/5/6
f 56/3/6 52/3/6 57/3/6
f 55/3/6 56/3/6 58/3/6
f 54/5/6 55/5/6 58/5/6
f 56/5/6 57/5/6 59/5/6
f 58/3/6 56/3/6 59/3/6
f 58/5/6 59/5/6 60/5/6
f 59/5/6 57/5/6 60/5/6
f 60/5/6 57/5/6 61/5/6
f 54/5/6 58/5/6 62/5/6
f 58/5/6 60/5/6 62/5/6
f 62/5/6 60/5/6 63/5/6
f 61/5/6 57/5/6 64/5/6
f 60/2/6 61/2/6 64/2/6
f 64/5/6 57/5/6 65/5/6
f 62/1/6 63/1/6 66/1/6
f 63/5/6 60/5/6 67/5/6
f 66/1/6 63/1/6 67/1/6
f 67/5/6 60/5/6 68/5/6
f 68/5/6 60/5/6 69/5/6
f 60/2/6 64/2/6 70/2/6
f 69/5/6 60/5/6 70/5/6
f 64/2/6 65/2/6 70/2/6
f 65/5/6 57/5/6 71/5/6
f 70/2/6 65/2/6 71/2/6
f 68/4/6 69/4/6 72/4/6
f 67/5/6 68/5/6 72/5/6
f 66/5/6 67/5/6 72/5/6
f 69/5/6 70/5/6 73/5/6
f 72/4/6 69/4/6 73/4/6
f 70/5/6 71/5/6 73/5/6
f 71/5/6 57/5/6 74/5/6
f 73/5/6 71/5/6 74/5/6
f 74/5/6 57/5/6 75/5/6
f 72/5/6 73/5/6 76/5/6
f 73/5/6 74/5/6 76/5/6
f 74/4/6 75/4/6 77/4/6
f 76/5/6 74/5/6 77/5/6
f 57/5/6 53/5/6 78/5/6
f 75/5/6 57/5/6 78/5/6
f 78/5/6 53/5/6 79/5/6
f 76/4/6 77/4/6 80/4/6
f 72/5/6 76/5/6 80/5/6
f 77/4/6 75/4/6 81/4/6
f 80/4/6 77/4/6 81/4/6
f 75/5/6 78/5/6 81/5/6
f 78/4/6 79/4/6 82/4/6
f 81/5/6 78/5/6 82/5/6
f 79/5/6 53/5/6 83/5/6
f 82/4/6 79/4/6 83/4/6
f 72/5/6 80/5/6 84/5/6
f 66/5/6 72/5/6 84/5/6
f 82/5/6 83/5/6 84/5/6
f 80/5/6 81/5/6 84/5/6
f 81/5/6 82/5/6 84/5/6
f 83/5/6 53/5/6 85/5/6
f 84/5/6 83/5/6 85/5/6
