# MagicaVoxel @ Ephtracy

# group
o 

# material
mtllib Tile6.mtl
usemtl palette

# normals
vn -1 0 0
vn 1 0 0
vn 0 0 1
vn 0 0 -1
vn 0 -1 0
vn 0 1 0

# texcoords
vt 0.0136719 0.5
vt 0.0878906 0.5
vt 0.369141 0.5
vt 0.744141 0.5
vt 0.791016 0.5

# verts
v 0 2 0
v 0 2 -2
v 0 2.5 0
v 0 2.5 -2
v 2 2 0
v 2 2 -2
v 2 2.4 0
v 2 2.4 -2
v 2 2.5 0
v 2 2.5 -2
v 0 2 0
v 0 2.5 0
v 0.8 2.4 0
v 0.8 2.5 0
v 2 2 0
v 2 2.4 0
v 2 2.5 0
v 0 2 -2
v 0 2.5 -2
v 1.1 2.4 -2
v 1.1 2.5 -2
v 2 2 -2
v 2 2.4 -2
v 2 2.5 -2
v 0 2 0
v 2 2 0
v 0.8 2 -0.1
v 1.6 2 -0.1
v 0.2 2 -0.8
v 0.8 2 -0.8
v 0.8 2 -1.1
v 1.3 2 -1.1
v 1.4 2 -1.2
v 1.6 2 -1.2
v 0.2 2 -1.3
v 0.5 2 -1.3
v 0.5 2 -1.6
v 0.8 2 -1.6
v 1.3 2 -1.6
v 1.4 2 -1.6
v 0 2 -2
v 2 2 -2
v 0 2.5 0
v 0.8 2.5 0
v 2 2.5 0
v 0.5 2.5 -0.1
v 0.6 2.5 -0.1
v 0.4 2.5 -0.2
v 0.5 2.5 -0.2
v 0.6 2.5 -0.2
v 0.7 2.5 -0.2
v 0.4 2.5 -0.3
v 0.5 2.5 -0.3
v 0.6 2.5 -0.3
v 0.7 2.5 -0.3
v 0.8 2.5 -0.3
v 1 2.5 -0.3
v 0.3 2.5 -0.4
v 0.4 2.5 -0.4
v 0.5 2.5 -0.4
v 0.6 2.5 -0.4
v 0.2 2.5 -0.5
v 0.3 2.5 -0.5
v 0.4 2.5 -0.5
v 0.2 2.5 -0.6
v 0.3 2.5 -0.6
v 0.9 2.5 -0.7
v 1 2.5 -0.7
v 0.3 2.5 -0.8
v 0.5 2.5 -0.8
v 0.3 2.5 -0.9
v 0.4 2.5 -0.9
v 0.4 2.5 -1
v 0.5 2.5 -1
v 0.7 2.5 -1.5
v 0.8 2.5 -1.5
v 0.4 2.5 -1.6
v 0.5 2.5 -1.6
v 0.7 2.5 -1.6
v 0.8 2.5 -1.6
v 0.4 2.5 -1.7
v 0.5 2.5 -1.7
v 0.9 2.5 -1.8
v 1.1 2.5 -1.8
v 0 2.5 -2
v 1.1 2.5 -2
v 2 2.5 -2

# faces
f 3/5/1 2/5/1 1/5/1
f 4/5/1 2/5/1 3/5/1
f 5/5/2 6/5/2 7/5/2
f 7/5/2 6/5/2 8/5/2
f 7/3/2 8/3/2 9/3/2
f 9/3/2 8/3/2 10/3/2
f 13/5/3 12/5/3 11/5/3
f 14/5/3 12/5/3 13/5/3
f 15/5/3 13/5/3 11/5/3
f 16/3/3 14/3/3 13/3/3
f 16/5/3 13/5/3 15/5/3
f 17/3/3 14/3/3 16/3/3
f 18/5/4 19/5/4 20/5/4
f 20/5/4 19/5/4 21/5/4
f 18/5/4 20/5/4 22/5/4
f 20/3/4 21/3/4 23/3/4
f 22/5/4 20/5/4 23/5/4
f 23/3/4 21/3/4 24/3/4
f 27/5/5 26/5/5 25/5/5
f 28/5/5 26/5/5 27/5/5
f 29/5/5 27/5/5 25/5/5
f 30/3/5 28/3/5 27/3/5
f 30/5/5 27/5/5 29/5/5
f 31/3/5 30/3/5 29/3/5
f 31/3/5 28/3/5 30/3/5
f 32/3/5 28/3/5 31/3/5
f 33/3/5 28/3/5 32/3/5
f 34/5/5 26/5/5 28/5/5
f 34/3/5 28/3/5 33/3/5
f 35/5/5 29/5/5 25/5/5
f 35/3/5 31/3/5 29/3/5
f 36/3/5 31/3/5 35/3/5
f 37/5/5 36/5/5 35/5/5
f 37/3/5 31/3/5 36/3/5
f 38/5/5 32/5/5 31/5/5
f 38/3/5 31/3/5 37/3/5
f 39/3/5 33/3/5 32/3/5
f 39/5/5 32/5/5 38/5/5
f 40/5/5 34/5/5 33/5/5
f 40/3/5 33/3/5 39/3/5
f 41/5/5 38/5/5 37/5/5
f 41/5/5 39/5/5 38/5/5
f 41/5/5 40/5/5 39/5/5
f 41/5/5 35/5/5 25/5/5
f 41/5/5 37/5/5 35/5/5
f 42/5/5 34/5/5 40/5/5
f 42/5/5 40/5/5 41/5/5
f 42/5/5 26/5/5 34/5/5
f 43/5/6 44/5/6 46/5/6
f 46/5/6 44/5/6 47/5/6
f 43/5/6 46/5/6 48/5/6
f 46/4/6 47/4/6 49/4/6
f 48/5/6 46/5/6 49/5/6
f 47/5/6 44/5/6 50/5/6
f 49/4/6 47/4/6 50/4/6
f 50/5/6 44/5/6 51/5/6
f 48/4/6 49/4/6 52/4/6
f 43/5/6 48/5/6 52/5/6
f 50/4/6 51/4/6 52/4/6
f 49/4/6 50/4/6 52/4/6
f 52/4/6 51/4/6 53/4/6
f 53/4/6 51/4/6 54/4/6
f 51/5/6 44/5/6 55/5/6
f 54/4/6 51/4/6 55/4/6
f 44/3/6 45/3/6 56/3/6
f 55/5/6 44/5/6 56/5/6
f 56/3/6 45/3/6 57/3/6
f 43/5/6 52/5/6 58/5/6
f 52/5/6 53/5/6 58/5/6
f 58/5/6 53/5/6 59/5/6
f 53/4/6 54/4/6 60/4/6
f 59/5/6 53/5/6 60/5/6
f 54/5/6 55/5/6 61/5/6
f 60/4/6 54/4/6 61/4/6
f 56/5/6 57/5/6 61/5/6
f 55/5/6 56/5/6 61/5/6
f 43/5/6 58/5/6 62/5/6
f 58/2/6 59/2/6 63/2/6
f 62/5/6 58/5/6 63/5/6
f 59/5/6 60/5/6 64/5/6
f 63/2/6 59/2/6 64/2/6
f 60/5/6 61/5/6 64/5/6
f 62/2/6 63/2/6 65/2/6
f 43/5/6 62/5/6 65/5/6
f 63/5/6 64/5/6 66/5/6
f 65/2/6 63/2/6 66/2/6
f 64/5/6 61/5/6 67/5/6
f 66/5/6 64/5/6 67/5/6
f 65/5/6 66/5/6 67/5/6
f 61/5/6 57/5/6 67/5/6
f 57/3/6 45/3/6 68/3/6
f 67/5/6 57/5/6 68/5/6
f 65/5/6 67/5/6 69/5/6
f 69/5/6 67/5/6 70/5/6
f 65/5/6 69/5/6 71/5/6
f 69/4/6 70/4/6 71/4/6
f 71/4/6 70/4/6 72/4/6
f 71/5/6 72/5/6 73/5/6
f 72/4/6 70/4/6 73/4/6
f 70/5/6 67/5/6 74/5/6
f 73/4/6 70/4/6 74/4/6
f 73/5/6 74/5/6 75/5/6
f 74/5/6 67/5/6 75/5/6
f 75/5/6 67/5/6 76/5/6
f 71/5/6 73/5/6 77/5/6
f 73/5/6 75/5/6 77/5/6
f 77/5/6 75/5/6 78/5/6
f 75/1/6 76/1/6 79/1/6
f 78/5/6 75/5/6 79/5/6
f 76/5/6 67/5/6 80/5/6
f 79/1/6 76/1/6 80/1/6
f 77/4/6 78/4/6 81/4/6
f 71/5/6 77/5/6 81/5/6
f 78/5/6 79/5/6 82/5/6
f 81/4/6 78/4/6 82/4/6
f 79/5/6 80/5/6 82/5/6
f 67/3/6 68/3/6 83/3/6
f 82/5/6 80/5/6 83/5/6
f 81/5/6 82/5/6 83/5/6
f 80/5/6 67/5/6 83/5/6
f 68/3/6 45/3/6 84/3/6
f 83/3/6 68/3/6 84/3/6
f 81/5/6 83/5/6 85/5/6
f 43/5/6 65/5/6 85/5/6
f 83/5/6 84/5/6 85/5/6
f 71/5/6 81/5/6 85/5/6
f 65/5/6 71/5/6 85/5/6
f 84/3/6 45/3/6 86/3/6
f 85/5/6 84/5/6 86/5/6
f 86/3/6 45/3/6 87/3/6
