# MagicaVoxel @ Ephtracy

# group
o 

# material
mtllib Tile9.mtl
usemtl palette

# normals
vn -1 0 0
vn 1 0 0
vn 0 0 1
vn 0 0 -1
vn 0 -1 0
vn 0 1 0

# texcoords
vt 0.0136719 0.5
vt 0.369141 0.5
vt 0.767578 0.5
vt 0.791016 0.5

# verts
v 0 2 0
v 0 2 -0.7
v 0 2 -0.8
v 0 2 -2
v 0 2.4 -0.7
v 0 2.4 -0.8
v 0 2.5 0
v 0 2.5 -2
v 2 2 0
v 2 2 -2
v 2 2.5 0
v 2 2.5 -2
v 0 2 0
v 0 2.5 0
v 1.2 2 0
v 1.2 2.5 0
v 2 2 0
v 2 2.5 0
v 0 2 -2
v 0 2.5 -2
v 1 2 -2
v 1 2.4 -2
v 1.4 2.4 -2
v 1.4 2.5 -2
v 2 2 -2
v 2 2.5 -2
v 0 2 0
v 1.2 2 0
v 2 2 0
v 1.1 2 -0.1
v 1.2 2 -0.1
v 0 2 -0.7
v 0.2 2 -0.7
v 0 2 -0.8
v 0.2 2 -0.8
v 1.1 2 -0.9
v 1.6 2 -0.9
v 1.1 2 -1.1
v 1.3 2 -1.1
v 1.4 2 -1.2
v 1.6 2 -1.2
v 1 2 -1.6
v 1.1 2 -1.6
v 1.3 2 -1.6
v 1.4 2 -1.6
v 0 2 -2
v 1 2 -2
v 2 2 -2
v 0 2.5 0
v 1.2 2.5 0
v 2 2.5 0
v 1.2 2.5 -0.1
v 1.3 2.5 -0.1
v 0.9 2.5 -0.4
v 1.3 2.5 -0.4
v 1.3 2.5 -0.5
v 1.5 2.5 -0.5
v 1.4 2.5 -0.6
v 1.5 2.5 -0.6
v 1.7 2.5 -0.6
v 1.8 2.5 -0.6
v 1.3 2.5 -0.7
v 1.4 2.5 -0.7
v 1.7 2.5 -0.7
v 1.8 2.5 -0.7
v 0.9 2.5 -0.9
v 1 2.5 -0.9
v 1 2.5 -1.5
v 1.3 2.5 -1.5
v 1.8 2.5 -1.5
v 1.9 2.5 -1.5
v 1.8 2.5 -1.6
v 1.9 2.5 -1.6
v 1.3 2.5 -1.7
v 1.4 2.5 -1.7
v 0 2.5 -2
v 1.4 2.5 -2
v 2 2.5 -2

# faces
f 5/2/1 2/2/1 1/2/1
f 5/4/1 3/4/1 2/4/1
f 6/2/1 4/2/1 3/2/1
f 6/4/1 3/4/1 5/4/1
f 7/2/1 5/2/1 1/2/1
f 7/2/1 6/2/1 5/2/1
f 8/2/1 4/2/1 6/2/1
f 8/2/1 6/2/1 7/2/1
f 9/4/2 10/4/2 11/4/2
f 11/4/2 10/4/2 12/4/2
f 15/2/3 14/2/3 13/2/3
f 16/2/3 14/2/3 15/2/3
f 17/4/3 16/4/3 15/4/3
f 18/4/3 16/4/3 17/4/3
f 19/2/4 20/2/4 21/2/4
f 21/2/4 20/2/4 22/2/4
f 21/4/4 22/4/4 23/4/4
f 22/2/4 20/2/4 23/2/4
f 23/2/4 20/2/4 24/2/4
f 21/4/4 23/4/4 25/4/4
f 23/4/4 24/4/4 25/4/4
f 25/4/4 24/4/4 26/4/4
f 30/2/5 28/2/5 27/2/5
f 31/4/5 29/4/5 28/4/5
f 31/2/5 28/2/5 30/2/5
f 32/2/5 30/2/5 27/2/5
f 33/2/5 30/2/5 32/2/5
f 34/4/5 33/4/5 32/4/5
f 35/2/5 30/2/5 33/2/5
f 35/4/5 33/4/5 34/4/5
f 36/4/5 31/4/5 30/4/5
f 36/2/5 30/2/5 35/2/5
f 36/2/5 35/2/5 34/2/5
f 37/4/5 29/4/5 31/4/5
f 37/4/5 31/4/5 36/4/5
f 38/2/5 36/2/5 34/2/5
f 38/2/5 37/2/5 36/2/5
f 39/2/5 37/2/5 38/2/5
f 40/2/5 37/2/5 39/2/5
f 41/4/5 29/4/5 37/4/5
f 41/2/5 37/2/5 40/2/5
f 42/2/5 38/2/5 34/2/5
f 43/4/5 39/4/5 38/4/5
f 43/2/5 38/2/5 42/2/5
f 44/2/5 40/2/5 39/2/5
f 44/4/5 39/4/5 43/4/5
f 45/4/5 41/4/5 40/4/5
f 45/2/5 40/2/5 44/2/5
f 46/2/5 42/2/5 34/2/5
f 47/4/5 43/4/5 42/4/5
f 47/2/5 42/2/5 46/2/5
f 47/4/5 44/4/5 43/4/5
f 47/4/5 45/4/5 44/4/5
f 48/4/5 29/4/5 41/4/5
f 48/4/5 45/4/5 47/4/5
f 48/4/5 41/4/5 45/4/5
f 49/2/6 50/2/6 52/2/6
f 50/4/6 51/4/6 52/4/6
f 52/4/6 51/4/6 53/4/6
f 49/2/6 52/2/6 54/2/6
f 52/2/6 53/2/6 54/2/6
f 53/4/6 51/4/6 55/4/6
f 54/2/6 53/2/6 55/2/6
f 54/4/6 55/4/6 56/4/6
f 55/4/6 51/4/6 56/4/6
f 56/4/6 51/4/6 57/4/6
f 56/3/6 57/3/6 58/3/6
f 57/4/6 51/4/6 59/4/6
f 58/3/6 57/3/6 59/3/6
f 59/4/6 51/4/6 60/4/6
f 60/4/6 51/4/6 61/4/6
f 54/4/6 56/4/6 62/4/6
f 56/3/6 58/3/6 62/3/6
f 58/4/6 59/4/6 63/4/6
f 62/3/6 58/3/6 63/3/6
f 59/4/6 60/4/6 63/4/6
f 60/1/6 61/1/6 64/1/6
f 63/4/6 60/4/6 64/4/6
f 61/4/6 51/4/6 65/4/6
f 64/1/6 61/1/6 65/1/6
f 49/2/6 54/2/6 66/2/6
f 63/4/6 64/4/6 66/4/6
f 64/4/6 65/4/6 66/4/6
f 54/4/6 62/4/6 66/4/6
f 62/4/6 63/4/6 66/4/6
f 66/4/6 65/4/6 67/4/6
f 66/2/6 67/2/6 68/2/6
f 67/4/6 65/4/6 68/4/6
f 68/4/6 65/4/6 69/4/6
f 65/4/6 51/4/6 70/4/6
f 69/4/6 65/4/6 70/4/6
f 70/4/6 51/4/6 71/4/6
f 69/4/6 70/4/6 72/4/6
f 70/3/6 71/3/6 72/3/6
f 71/4/6 51/4/6 73/4/6
f 72/3/6 71/3/6 73/3/6
f 68/2/6 69/2/6 74/2/6
f 69/4/6 72/4/6 74/4/6
f 72/4/6 73/4/6 74/4/6
f 74/4/6 73/4/6 75/4/6
f 49/2/6 66/2/6 76/2/6
f 66/2/6 68/2/6 76/2/6
f 74/2/6 75/2/6 76/2/6
f 68/2/6 74/2/6 76/2/6
f 75/4/6 73/4/6 77/4/6
f 76/2/6 75/2/6 77/2/6
f 73/4/6 51/4/6 78/4/6
f 77/4/6 73/4/6 78/4/6
