# MagicaVoxel @ Ephtracy

# group
o 

# material
mtllib Tile2.mtl
usemtl palette

# normals
vn -1 0 0
vn 1 0 0
vn 0 0 1
vn 0 0 -1
vn 0 -1 0
vn 0 1 0

# texcoords
vt 0.00585938 0.5
vt 0.0175781 0.5
vt 0.0839844 0.5
vt 0.369141 0.5
vt 0.744141 0.5
vt 0.791016 0.5

# verts
v 0 2 0
v 0 2 -2
v 0 2.5 0
v 0 2.5 -2
v 2 2 0
v 2 2 -2
v 2 2.4 -0.9
v 2 2.4 -1.3
v 2 2.5 0
v 2 2.5 -0.9
v 2 2.5 -1.3
v 2 2.5 -2
v 0 2 0
v 0 2.5 0
v 1.1 2.2 0
v 1.1 2.5 0
v 1.2 2 0
v 1.2 2.2 0
v 2 2 0
v 2 2.5 0
v 0 2 -2
v 0 2.5 -2
v 0.8 2 -2
v 0.8 2.5 -2
v 2 2 -2
v 2 2.5 -2
v 0 2 0
v 1.2 2 0
v 2 2 0
v 1.2 2 -0.1
v 1.6 2 -0.1
v 0.8 2 -1.1
v 1.3 2 -1.1
v 1.4 2 -1.2
v 1.6 2 -1.2
v 1.3 2 -1.6
v 1.4 2 -1.6
v 0 2 -2
v 0.8 2 -2
v 2 2 -2
v 0 2.5 0
v 1.1 2.5 0
v 2 2.5 0
v 1.4 2.5 -0.4
v 1.7 2.5 -0.4
v 1.4 2.5 -0.6
v 1.7 2.5 -0.6
v 1.1 2.5 -0.8
v 1.2 2.5 -0.8
v 1.8 2.5 -0.9
v 2 2.5 -0.9
v 1 2.5 -1
v 1.2 2.5 -1
v 0.8 2.5 -1.1
v 1 2.5 -1.1
v 1.4 2.5 -1.2
v 1.5 2.5 -1.2
v 1.3 2.5 -1.3
v 1.4 2.5 -1.3
v 1.5 2.5 -1.3
v 1.6 2.5 -1.3
v 1.8 2.5 -1.3
v 2 2.5 -1.3
v 1.3 2.5 -1.4
v 1.4 2.5 -1.4
v 1.5 2.5 -1.4
v 1.6 2.5 -1.4
v 1.4 2.5 -1.5
v 1.5 2.5 -1.5
v 1.6 2.5 -1.5
v 1.7 2.5 -1.5
v 1.4 2.5 -1.6
v 1.5 2.5 -1.6
v 1.6 2.5 -1.6
v 1.7 2.5 -1.6
v 1.5 2.5 -1.7
v 1.6 2.5 -1.7
v 1.5 2.5 -1.8
v 1.6 2.5 -1.8
v 1.5 2.5 -1.9
v 1.6 2.5 -1.9
v 0 2.5 -2
v 0.8 2.5 -2
v 2 2.5 -2

# faces
f 3/4/1 2/4/1 1/4/1
f 4/4/1 2/4/1 3/4/1
f 5/6/2 6/6/2 7/6/2
f 7/6/2 6/6/2 8/6/2
f 5/6/2 7/6/2 9/6/2
f 7/5/2 8/5/2 10/5/2
f 9/6/2 7/6/2 10/6/2
f 8/6/2 6/6/2 11/6/2
f 10/5/2 8/5/2 11/5/2
f 11/6/2 6/6/2 12/6/2
f 15/4/3 14/4/3 13/4/3
f 16/4/3 14/4/3 15/4/3
f 17/4/3 15/4/3 13/4/3
f 18/6/3 16/6/3 15/6/3
f 18/4/3 15/4/3 17/4/3
f 19/6/3 18/6/3 17/6/3
f 20/6/3 16/6/3 18/6/3
f 20/6/3 18/6/3 19/6/3
f 21/4/4 22/4/4 23/4/4
f 23/4/4 22/4/4 24/4/4
f 23/6/4 24/6/4 25/6/4
f 25/6/4 24/6/4 26/6/4
f 30/4/5 28/4/5 27/4/5
f 30/6/5 29/6/5 28/6/5
f 31/6/5 29/6/5 30/6/5
f 32/4/5 30/4/5 27/4/5
f 32/4/5 31/4/5 30/4/5
f 33/4/5 31/4/5 32/4/5
f 34/4/5 31/4/5 33/4/5
f 35/6/5 29/6/5 31/6/5
f 35/4/5 31/4/5 34/4/5
f 36/4/5 34/4/5 33/4/5
f 36/6/5 33/6/5 32/6/5
f 37/6/5 35/6/5 34/6/5
f 37/4/5 34/4/5 36/4/5
f 38/4/5 32/4/5 27/4/5
f 39/6/5 36/6/5 32/6/5
f 39/4/5 32/4/5 38/4/5
f 39/6/5 37/6/5 36/6/5
f 40/6/5 29/6/5 35/6/5
f 40/6/5 37/6/5 39/6/5
f 40/6/5 35/6/5 37/6/5
f 42/6/6 43/6/6 44/6/6
f 44/6/6 43/6/6 45/6/6
f 42/6/6 44/6/6 46/6/6
f 44/5/6 45/5/6 46/5/6
f 45/6/6 43/6/6 47/6/6
f 46/5/6 45/5/6 47/5/6
f 41/4/6 42/4/6 48/4/6
f 42/6/6 46/6/6 48/6/6
f 46/6/6 47/6/6 48/6/6
f 48/6/6 47/6/6 49/6/6
f 47/6/6 43/6/6 50/6/6
f 49/6/6 47/6/6 50/6/6
f 50/6/6 43/6/6 51/6/6
f 48/4/6 49/4/6 52/4/6
f 41/4/6 48/4/6 52/4/6
f 49/6/6 50/6/6 53/6/6
f 52/4/6 49/4/6 53/4/6
f 41/4/6 52/4/6 54/4/6
f 52/6/6 53/6/6 55/6/6
f 54/4/6 52/4/6 55/4/6
f 53/6/6 50/6/6 56/6/6
f 55/6/6 53/6/6 56/6/6
f 54/6/6 55/6/6 56/6/6
f 56/6/6 50/6/6 57/6/6
f 54/6/6 56/6/6 58/6/6
f 56/2/6 57/2/6 59/2/6
f 58/6/6 56/6/6 59/6/6
f 57/6/6 50/6/6 60/6/6
f 59/2/6 57/2/6 60/2/6
f 60/6/6 50/6/6 61/6/6
f 50/5/6 51/5/6 62/5/6
f 61/6/6 50/6/6 62/6/6
f 62/5/6 51/5/6 63/5/6
f 58/2/6 59/2/6 64/2/6
f 54/6/6 58/6/6 64/6/6
f 59/1/6 60/1/6 65/1/6
f 64/2/6 59/2/6 65/2/6
f 60/2/6 61/2/6 66/2/6
f 65/1/6 60/1/6 66/1/6
f 62/6/6 63/6/6 67/6/6
f 66/2/6 61/2/6 67/2/6
f 61/6/6 62/6/6 67/6/6
f 64/6/6 65/6/6 68/6/6
f 65/2/6 66/2/6 68/2/6
f 66/3/6 67/3/6 69/3/6
f 68/2/6 66/2/6 69/2/6
f 67/6/6 63/6/6 70/6/6
f 69/3/6 67/3/6 70/3/6
f 70/6/6 63/6/6 71/6/6
f 68/3/6 69/3/6 72/3/6
f 64/6/6 68/6/6 72/6/6
f 70/3/6 71/3/6 72/3/6
f 69/3/6 70/3/6 72/3/6
f 72/3/6 71/3/6 73/3/6
f 73/3/6 71/3/6 74/3/6
f 71/6/6 63/6/6 75/6/6
f 74/3/6 71/3/6 75/3/6
f 73/3/6 74/3/6 76/3/6
f 72/6/6 73/6/6 76/6/6
f 74/6/6 75/6/6 77/6/6
f 76/3/6 74/3/6 77/3/6
f 72/6/6 76/6/6 78/6/6
f 76/6/6 77/6/6 78/6/6
f 77/6/6 75/6/6 79/6/6
f 78/6/6 77/6/6 79/6/6
f 72/6/6 78/6/6 80/6/6
f 78/5/6 79/5/6 80/5/6
f 79/6/6 75/6/6 81/6/6
f 80/5/6 79/5/6 81/5/6
f 41/4/6 54/4/6 82/4/6
f 54/6/6 64/6/6 83/6/6
f 82/4/6 54/4/6 83/4/6
f 64/6/6 72/6/6 83/6/6
f 80/6/6 81/6/6 83/6/6
f 72/6/6 80/6/6 83/6/6
f 75/6/6 63/6/6 84/6/6
f 83/6/6 81/6/6 84/6/6
f 81/6/6 75/6/6 84/6/6
