# MagicaVoxel @ Ephtracy

# group
o 

# material
mtllib Tile3.mtl
usemtl palette

# normals
vn -1 0 0
vn 1 0 0
vn 0 0 1
vn 0 0 -1
vn 0 -1 0
vn 0 1 0

# texcoords
vt 0.369141 0.5
vt 0.744141 0.5
vt 0.791016 0.5

# verts
v 0 2 0
v 0 2 -2
v 0 2.5 0
v 0 2.5 -2
v 2 2 0
v 2 2 -2
v 2 2.5 0
v 2 2.5 -2
v 0 2 0
v 0 2.5 0
v 2 2 0
v 2 2.5 0
v 0 2 -2
v 0 2.5 -2
v 0.1 2 -2
v 0.1 2.4 -2
v 0.8 2 -2
v 0.8 2.4 -2
v 2 2 -2
v 2 2.5 -2
v 0 2 0
v 2 2 0
v 0.1 2 -0.1
v 1.6 2 -0.1
v 0.8 2 -1.1
v 1.3 2 -1.1
v 1.4 2 -1.2
v 1.6 2 -1.2
v 1.3 2 -1.6
v 1.4 2 -1.6
v 0 2 -2
v 0.1 2 -2
v 0.8 2 -2
v 2 2 -2
v 0 2.5 0
v 2 2.5 0
v 0.5 2.5 -0.3
v 0.6 2.5 -0.3
v 0.5 2.5 -0.4
v 0.6 2.5 -0.4
v 0.8 2.5 -0.4
v 0.5 2.5 -0.5
v 0.6 2.5 -0.5
v 0.7 2.5 -0.5
v 0.8 2.5 -0.5
v 0.5 2.5 -0.6
v 0.7 2.5 -0.6
v 0.6 2.5 -1.2
v 0.7 2.5 -1.2
v 1.4 2.5 -1.2
v 1.5 2.5 -1.2
v 0.5 2.5 -1.3
v 0.6 2.5 -1.3
v 0.7 2.5 -1.3
v 1.4 2.5 -1.3
v 1.5 2.5 -1.3
v 0.5 2.5 -1.4
v 0.6 2.5 -1.4
v 0 2.5 -2
v 2 2.5 -2

# faces
f 3/3/1 2/3/1 1/3/1
f 4/3/1 2/3/1 3/3/1
f 5/3/2 6/3/2 7/3/2
f 7/3/2 6/3/2 8/3/2
f 11/3/3 10/3/3 9/3/3
f 12/3/3 10/3/3 11/3/3
f 13/3/4 14/3/4 15/3/4
f 15/3/4 14/3/4 16/3/4
f 15/1/4 16/1/4 17/1/4
f 16/3/4 14/3/4 18/3/4
f 17/1/4 16/1/4 18/1/4
f 17/3/4 18/3/4 19/3/4
f 18/3/4 14/3/4 20/3/4
f 19/3/4 18/3/4 20/3/4
f 23/3/5 22/3/5 21/3/5
f 24/3/5 22/3/5 23/3/5
f 25/1/5 24/1/5 23/1/5
f 26/1/5 24/1/5 25/1/5
f 27/1/5 24/1/5 26/1/5
f 28/3/5 22/3/5 24/3/5
f 28/1/5 24/1/5 27/1/5
f 29/1/5 27/1/5 26/1/5
f 29/3/5 26/3/5 25/3/5
f 30/3/5 28/3/5 27/3/5
f 30/1/5 27/1/5 29/1/5
f 31/3/5 23/3/5 21/3/5
f 32/1/5 25/1/5 23/1/5
f 32/3/5 23/3/5 31/3/5
f 33/3/5 29/3/5 25/3/5
f 33/1/5 25/1/5 32/1/5
f 33/3/5 30/3/5 29/3/5
f 34/3/5 28/3/5 30/3/5
f 34/3/5 30/3/5 33/3/5
f 34/3/5 22/3/5 28/3/5
f 35/3/6 36/3/6 37/3/6
f 37/3/6 36/3/6 38/3/6
f 35/3/6 37/3/6 39/3/6
f 37/2/6 38/2/6 39/2/6
f 38/3/6 36/3/6 40/3/6
f 39/2/6 38/2/6 40/2/6
f 40/3/6 36/3/6 41/3/6
f 35/3/6 39/3/6 42/3/6
f 39/3/6 40/3/6 42/3/6
f 40/2/6 41/2/6 43/2/6
f 42/3/6 40/3/6 43/3/6
f 43/2/6 41/2/6 44/2/6
f 41/3/6 36/3/6 45/3/6
f 44/2/6 41/2/6 45/2/6
f 43/2/6 44/2/6 46/2/6
f 35/3/6 42/3/6 46/3/6
f 42/2/6 43/2/6 46/2/6
f 44/3/6 45/3/6 47/3/6
f 46/2/6 44/2/6 47/2/6
f 46/3/6 47/3/6 48/3/6
f 47/3/6 45/3/6 49/3/6
f 48/3/6 47/3/6 49/3/6
f 45/3/6 36/3/6 50/3/6
f 49/3/6 45/3/6 50/3/6
f 50/3/6 36/3/6 51/3/6
f 35/3/6 46/3/6 52/3/6
f 46/3/6 48/3/6 52/3/6
f 48/2/6 49/2/6 53/2/6
f 52/3/6 48/3/6 53/3/6
f 49/3/6 50/3/6 54/3/6
f 53/2/6 49/2/6 54/2/6
f 50/2/6 51/2/6 55/2/6
f 54/3/6 50/3/6 55/3/6
f 51/3/6 36/3/6 56/3/6
f 55/2/6 51/2/6 56/2/6
f 35/3/6 52/3/6 57/3/6
f 52/2/6 53/2/6 57/2/6
f 54/3/6 55/3/6 58/3/6
f 57/2/6 53/2/6 58/2/6
f 53/3/6 54/3/6 58/3/6
f 55/3/6 56/3/6 58/3/6
f 35/3/6 57/3/6 59/3/6
f 57/3/6 58/3/6 59/3/6
f 56/3/6 36/3/6 60/3/6
f 59/3/6 58/3/6 60/3/6
f 58/3/6 56/3/6 60/3/6
