# MagicaVoxel @ Ephtracy

# group
o 

# material
mtllib tree3.mtl
usemtl palette

# normals
vn -1 0 0
vn 1 0 0
vn 0 0 1
vn 0 0 -1
vn 0 -1 0
vn 0 1 0

# texcoords
vt 0.373047 0.5
vt 0.904297 0.5

# verts
v 0 3.4 0
v 0 3.4 -2.4
v 0 3.8 0
v 0 3.8 -2.4
v 0.1 3.3 -0.1
v 0.1 3.3 -2.4
v 0.1 3.4 -0.1
v 0.1 3.4 -2.4
v 0.1 3.8 -0.4
v 0.1 3.8 -2.2
v 0.1 3.9 -0.4
v 0.1 3.9 -2.2
v 0.2 3.1 -0.1
v 0.2 3.1 -2.3
v 0.2 3.3 -0.1
v 0.2 3.3 -2.3
v 0.6 2 -0.8
v 0.6 2 -1.8
v 0.6 2.1 -0.8
v 0.6 2.1 -1.8
v 0.8 2.1 -0.9
v 0.8 2.1 -1.7
v 0.8 2.2 -0.9
v 0.8 2.2 -1.5
v 0.8 2.3 -1
v 0.8 2.3 -1.5
v 0.8 2.3 -1.6
v 0.8 2.3 -1.7
v 0.8 2.8 -1.6
v 0.8 2.8 -1.7
v 0.8 3.1 -1
v 0.8 3.1 -1.7
v 0.9 2.2 -0.9
v 0.9 2.2 -1.5
v 0.9 2.3 -0.9
v 0.9 2.3 -1
v 0.9 2.3 -1.5
v 0.9 2.8 -1.6
v 0.9 2.8 -1.7
v 0.9 2.9 -1.6
v 0.9 2.9 -1.7
v 1 2.1 -0.9
v 1 2.1 -1
v 1 2.2 -1
v 1 2.2 -1.7
v 1 2.3 -0.9
v 1 2.3 -1
v 1 2.3 -1.6
v 1 2.3 -1.7
v 1 2.9 -1.5
v 1 2.9 -1.6
v 1 3.1 -1
v 1 3.1 -1.5
v 1.1 2.1 -1.5
v 1.1 2.1 -1.7
v 1.1 2.2 -1.5
v 1.1 2.2 -1.7
v 1.1 2.9 -1.5
v 1.1 2.9 -1.7
v 1.1 3.1 -1.5
v 1.1 3.1 -1.7
v 1.2 2.1 -1.1
v 1.2 2.1 -1.3
v 1.2 2.1 -1.4
v 1.2 2.1 -1.5
v 1.2 2.2 -1.1
v 1.2 2.2 -1.3
v 1.2 2.2 -1.4
v 1.2 2.2 -1.5
v 1.3 2.1 -1
v 1.3 2.1 -1.1
v 1.3 2.1 -1.3
v 1.3 2.1 -1.4
v 1.3 2.2 -1
v 1.3 2.2 -1.1
v 1.3 2.2 -1.3
v 1.3 2.2 -1.4
v 1.4 3.1 -0.1
v 1.4 3.1 -2.3
v 1.4 3.3 -0.1
v 1.4 3.3 -2.3
v 1.5 2 -0.8
v 1.5 2 -1.8
v 1.5 2.1 -0.8
v 1.5 2.1 -1.8
v 1.5 3.4 0
v 1.5 3.4 -0.1
v 1.5 3.5 0
v 1.5 3.5 -0.1
v 1.6 3.3 -0.1
v 1.6 3.3 -2.4
v 1.6 3.5 0
v 1.6 3.5 -0.1
v 1.6 3.6 0
v 1.6 3.6 -2.4
v 1.7 3.6 0
v 1.7 3.6 -2.4
v 1.7 3.8 0
v 1.7 3.8 -0.4
v 1.7 3.8 -2.2
v 1.7 3.8 -2.4
v 1.7 3.9 -0.4
v 1.7 3.9 -2.2
v 0 3.4 0
v 0 3.8 0
v 1.5 3.4 0
v 1.5 3.5 0
v 1.6 3.5 0
v 1.6 3.6 0
v 1.7 3.6 0
v 1.7 3.8 0
v 0.1 3.3 -0.1
v 0.1 3.4 -0.1
v 0.2 3.1 -0.1
v 0.2 3.3 -0.1
v 1.4 3.1 -0.1
v 1.4 3.3 -0.1
v 1.5 3.4 -0.1
v 1.5 3.5 -0.1
v 1.6 3.3 -0.1
v 1.6 3.5 -0.1
v 0.1 3.8 -0.4
v 0.1 3.9 -0.4
v 1.7 3.8 -0.4
v 1.7 3.9 -0.4
v 0.6 2 -0.8
v 0.6 2.1 -0.8
v 1.5 2 -0.8
v 1.5 2.1 -0.8
v 0.8 2.1 -0.9
v 0.8 2.2 -0.9
v 0.9 2.2 -0.9
v 0.9 2.3 -0.9
v 1 2.1 -0.9
v 1 2.3 -0.9
v 0.8 2.3 -1
v 0.8 3.1 -1
v 0.9 2.3 -1
v 1 2.1 -1
v 1 2.2 -1
v 1 2.3 -1
v 1 3.1 -1
v 1.3 2.1 -1
v 1.3 2.2 -1
v 1.2 2.1 -1.3
v 1.2 2.2 -1.3
v 1.3 2.1 -1.3
v 1.3 2.2 -1.3
v 0.8 2.2 -1.5
v 0.8 2.3 -1.5
v 0.9 2.2 -1.5
v 0.9 2.3 -1.5
v 1 2.9 -1.5
v 1 3.1 -1.5
v 1.1 2.9 -1.5
v 1.1 3.1 -1.5
v 1.2 2.1 -1.1
v 1.2 2.2 -1.1
v 1.3 2.1 -1.1
v 1.3 2.2 -1.1
v 1.2 2.1 -1.4
v 1.2 2.2 -1.4
v 1.3 2.1 -1.4
v 1.3 2.2 -1.4
v 1.1 2.1 -1.5
v 1.1 2.2 -1.5
v 1.2 2.1 -1.5
v 1.2 2.2 -1.5
v 0.8 2.3 -1.6
v 0.8 2.8 -1.6
v 0.9 2.8 -1.6
v 0.9 2.9 -1.6
v 1 2.3 -1.6
v 1 2.9 -1.6
v 0.8 2.1 -1.7
v 0.8 2.3 -1.7
v 0.8 2.8 -1.7
v 0.8 3.1 -1.7
v 0.9 2.8 -1.7
v 0.9 2.9 -1.7
v 1 2.2 -1.7
v 1 2.3 -1.7
v 1.1 2.1 -1.7
v 1.1 2.2 -1.7
v 1.1 2.9 -1.7
v 1.1 3.1 -1.7
v 0.6 2 -1.8
v 0.6 2.1 -1.8
v 1.5 2 -1.8
v 1.5 2.1 -1.8
v 0.1 3.8 -2.2
v 0.1 3.9 -2.2
v 1.7 3.8 -2.2
v 1.7 3.9 -2.2
v 0.2 3.1 -2.3
v 0.2 3.3 -2.3
v 1.4 3.1 -2.3
v 1.4 3.3 -2.3
v 0 3.4 -2.4
v 0 3.8 -2.4
v 0.1 3.3 -2.4
v 0.1 3.4 -2.4
v 1.6 3.3 -2.4
v 1.6 3.6 -2.4
v 1.7 3.6 -2.4
v 1.7 3.8 -2.4
v 0.6 2 -0.8
v 1.5 2 -0.8
v 0.6 2 -1.8
v 1.5 2 -1.8
v 0.8 2.3 -1
v 0.9 2.3 -1
v 0.8 2.3 -1.5
v 0.9 2.3 -1.5
v 0.8 2.8 -1.6
v 0.9 2.8 -1.6
v 0.8 2.8 -1.7
v 0.9 2.8 -1.7
v 1 2.9 -1.5
v 1.1 2.9 -1.5
v 0.9 2.9 -1.6
v 1 2.9 -1.6
v 0.9 2.9 -1.7
v 1.1 2.9 -1.7
v 0.2 3.1 -0.1
v 1.4 3.1 -0.1
v 0.8 3.1 -1
v 1 3.1 -1
v 1 3.1 -1.5
v 1.1 3.1 -1.5
v 0.8 3.1 -1.7
v 1.1 3.1 -1.7
v 0.2 3.1 -2.3
v 1.4 3.1 -2.3
v 0.1 3.3 -0.1
v 0.2 3.3 -0.1
v 1.4 3.3 -0.1
v 1.6 3.3 -0.1
v 0.2 3.3 -2.3
v 1.4 3.3 -2.3
v 0.1 3.3 -2.4
v 1.6 3.3 -2.4
v 0 3.4 0
v 1.5 3.4 0
v 0.1 3.4 -0.1
v 1.5 3.4 -0.1
v 0 3.4 -2.4
v 0.1 3.4 -2.4
v 1.5 3.5 0
v 1.6 3.5 0
v 1.5 3.5 -0.1
v 1.6 3.5 -0.1
v 1.6 3.6 0
v 1.7 3.6 0
v 1.6 3.6 -2.4
v 1.7 3.6 -2.4
v 0.6 2.1 -0.8
v 1.5 2.1 -0.8
v 0.8 2.1 -0.9
v 1 2.1 -0.9
v 1 2.1 -1
v 1.3 2.1 -1
v 1.2 2.1 -1.1
v 1.3 2.1 -1.1
v 1.2 2.1 -1.3
v 1.3 2.1 -1.3
v 1.2 2.1 -1.4
v 1.3 2.1 -1.4
v 1.1 2.1 -1.5
v 1.2 2.1 -1.5
v 0.8 2.1 -1.7
v 1.1 2.1 -1.7
v 0.6 2.1 -1.8
v 1.5 2.1 -1.8
v 0.8 2.2 -0.9
v 0.9 2.2 -0.9
v 1 2.2 -1
v 1.3 2.2 -1
v 1.2 2.2 -1.1
v 1.3 2.2 -1.1
v 1.2 2.2 -1.3
v 1.3 2.2 -1.3
v 1.2 2.2 -1.4
v 1.3 2.2 -1.4
v 0.8 2.2 -1.5
v 0.9 2.2 -1.5
v 1.1 2.2 -1.5
v 1.2 2.2 -1.5
v 1 2.2 -1.7
v 1.1 2.2 -1.7
v 0.9 2.3 -0.9
v 1 2.3 -0.9
v 0.9 2.3 -1
v 1 2.3 -1
v 0.8 2.3 -1.6
v 1 2.3 -1.6
v 0.8 2.3 -1.7
v 1 2.3 -1.7
v 0 3.8 0
v 1.7 3.8 0
v 0.1 3.8 -0.4
v 1.7 3.8 -0.4
v 0.1 3.8 -2.2
v 1.7 3.8 -2.2
v 0 3.8 -2.4
v 1.7 3.8 -2.4
v 0.1 3.9 -0.4
v 1.7 3.9 -0.4
v 0.1 3.9 -2.2
v 1.7 3.9 -2.2

# faces
f 3/2/1 2/2/1 1/2/1
f 4/2/1 2/2/1 3/2/1
f 7/2/1 6/2/1 5/2/1
f 8/2/1 6/2/1 7/2/1
f 11/2/1 10/2/1 9/2/1
f 12/2/1 10/2/1 11/2/1
f 15/2/1 14/2/1 13/2/1
f 16/2/1 14/2/1 15/2/1
f 19/1/1 18/1/1 17/1/1
f 20/1/1 18/1/1 19/1/1
f 23/1/1 22/1/1 21/1/1
f 24/1/1 22/1/1 23/1/1
f 26/1/1 22/1/1 24/1/1
f 27/1/1 22/1/1 26/1/1
f 28/1/1 22/1/1 27/1/1
f 29/1/1 26/1/1 25/1/1
f 29/1/1 27/1/1 26/1/1
f 31/1/1 29/1/1 25/1/1
f 31/1/1 30/1/1 29/1/1
f 32/1/1 30/1/1 31/1/1
f 35/1/1 34/1/1 33/1/1
f 36/1/1 34/1/1 35/1/1
f 37/1/1 34/1/1 36/1/1
f 38/1/2 39/1/2 40/1/2
f 40/1/2 39/1/2 41/1/2
f 42/1/2 43/1/2 44/1/2
f 42/1/2 44/1/2 46/1/2
f 44/1/2 45/1/2 46/1/2
f 46/1/2 45/1/2 47/1/2
f 47/1/2 45/1/2 48/1/2
f 48/1/2 45/1/2 49/1/2
f 47/1/2 48/1/2 50/1/2
f 50/1/2 48/1/2 51/1/2
f 47/1/2 50/1/2 52/1/2
f 52/1/2 50/1/2 53/1/2
f 54/1/2 55/1/2 56/1/2
f 56/1/2 55/1/2 57/1/2
f 58/1/2 59/1/2 60/1/2
f 60/1/2 59/1/2 61/1/2
f 62/1/2 63/1/2 66/1/2
f 66/1/2 63/1/2 67/1/2
f 64/1/2 65/1/2 68/1/2
f 68/1/2 65/1/2 69/1/2
f 70/1/2 71/1/2 74/1/2
f 74/1/2 71/1/2 75/1/2
f 72/1/2 73/1/2 76/1/2
f 76/1/2 73/1/2 77/1/2
f 78/2/2 79/2/2 80/2/2
f 80/2/2 79/2/2 81/2/2
f 82/1/2 83/1/2 84/1/2
f 84/1/2 83/1/2 85/1/2
f 86/2/2 87/2/2 88/2/2
f 88/2/2 87/2/2 89/2/2
f 90/2/2 91/2/2 93/2/2
f 92/2/2 93/2/2 94/2/2
f 93/2/2 91/2/2 95/2/2
f 94/2/2 93/2/2 95/2/2
f 96/2/2 97/2/2 98/2/2
f 98/2/2 97/2/2 99/2/2
f 99/2/2 97/2/2 100/2/2
f 100/2/2 97/2/2 101/2/2
f 99/2/2 100/2/2 102/2/2
f 102/2/2 100/2/2 103/2/2
f 106/2/3 105/2/3 104/2/3
f 107/2/3 105/2/3 106/2/3
f 108/2/3 105/2/3 107/2/3
f 109/2/3 105/2/3 108/2/3
f 110/2/3 105/2/3 109/2/3
f 111/2/3 105/2/3 110/2/3
f 115/2/3 113/2/3 112/2/3
f 116/2/3 115/2/3 114/2/3
f 117/2/3 113/2/3 115/2/3
f 117/2/3 115/2/3 116/2/3
f 118/2/3 113/2/3 117/2/3
f 120/2/3 118/2/3 117/2/3
f 120/2/3 119/2/3 118/2/3
f 121/2/3 119/2/3 120/2/3
f 124/2/3 123/2/3 122/2/3
f 125/2/3 123/2/3 124/2/3
f 128/1/3 127/1/3 126/1/3
f 129/1/3 127/1/3 128/1/3
f 132/1/3 131/1/3 130/1/3
f 134/1/3 132/1/3 130/1/3
f 134/1/3 133/1/3 132/1/3
f 135/1/3 133/1/3 134/1/3
f 138/1/3 137/1/3 136/1/3
f 141/1/3 137/1/3 138/1/3
f 142/1/3 137/1/3 141/1/3
f 143/1/3 140/1/3 139/1/3
f 144/1/3 140/1/3 143/1/3
f 147/1/3 146/1/3 145/1/3
f 148/1/3 146/1/3 147/1/3
f 151/1/3 150/1/3 149/1/3
f 152/1/3 150/1/3 151/1/3
f 155/1/3 154/1/3 153/1/3
f 156/1/3 154/1/3 155/1/3
f 157/1/4 158/1/4 159/1/4
f 159/1/4 158/1/4 160/1/4
f 161/1/4 162/1/4 163/1/4
f 163/1/4 162/1/4 164/1/4
f 165/1/4 166/1/4 167/1/4
f 167/1/4 166/1/4 168/1/4
f 169/1/4 170/1/4 171/1/4
f 169/1/4 171/1/4 173/1/4
f 171/1/4 172/1/4 173/1/4
f 173/1/4 172/1/4 174/1/4
f 177/1/4 178/1/4 179/1/4
f 179/1/4 178/1/4 180/1/4
f 175/1/4 176/1/4 181/1/4
f 181/1/4 176/1/4 182/1/4
f 175/1/4 181/1/4 183/1/4
f 183/1/4 181/1/4 184/1/4
f 180/1/4 178/1/4 185/1/4
f 185/1/4 178/1/4 186/1/4
f 187/1/4 188/1/4 189/1/4
f 189/1/4 188/1/4 190/1/4
f 191/2/4 192/2/4 193/2/4
f 193/2/4 192/2/4 194/2/4
f 195/2/4 196/2/4 197/2/4
f 197/2/4 196/2/4 198/2/4
f 199/2/4 200/2/4 202/2/4
f 201/2/4 202/2/4 203/2/4
f 202/2/4 200/2/4 204/2/4
f 203/2/4 202/2/4 204/2/4
f 204/2/4 200/2/4 205/2/4
f 205/2/4 200/2/4 206/2/4
f 209/1/5 208/1/5 207/1/5
f 210/1/5 208/1/5 209/1/5
f 213/1/5 212/1/5 211/1/5
f 214/1/5 212/1/5 213/1/5
f 217/1/5 216/1/5 215/1/5
f 218/1/5 216/1/5 217/1/5
f 222/1/5 220/1/5 219/1/5
f 223/1/5 222/1/5 221/1/5
f 224/1/5 220/1/5 222/1/5
f 224/1/5 222/1/5 223/1/5
f 227/2/5 226/2/5 225/2/5
f 228/2/5 226/2/5 227/2/5
f 229/2/5 226/2/5 228/2/5
f 230/2/5 226/2/5 229/2/5
f 231/2/5 227/2/5 225/2/5
f 232/2/5 226/2/5 230/2/5
f 233/2/5 231/2/5 225/2/5
f 233/2/5 232/2/5 231/2/5
f 234/2/5 226/2/5 232/2/5
f 234/2/5 232/2/5 233/2/5
f 239/2/5 236/2/5 235/2/5
f 240/2/5 238/2/5 237/2/5
f 241/2/5 239/2/5 235/2/5
f 241/2/5 240/2/5 239/2/5
f 242/2/5 238/2/5 240/2/5
f 242/2/5 240/2/5 241/2/5
f 245/2/5 244/2/5 243/2/5
f 246/2/5 244/2/5 245/2/5
f 247/2/5 245/2/5 243/2/5
f 248/2/5 245/2/5 247/2/5
f 251/2/5 250/2/5 249/2/5
f 252/2/5 250/2/5 251/2/5
f 255/2/5 254/2/5 253/2/5
f 256/2/5 254/2/5 255/2/5
f 257/1/6 258/1/6 259/1/6
f 259/1/6 258/1/6 260/1/6
f 260/1/6 258/1/6 261/1/6
f 261/1/6 258/1/6 262/1/6
f 262/1/6 258/1/6 264/1/6
f 263/1/6 264/1/6 265/1/6
f 264/1/6 258/1/6 266/1/6
f 265/1/6 264/1/6 266/1/6
f 266/1/6 258/1/6 268/1/6
f 267/1/6 268/1/6 270/1/6
f 257/1/6 259/1/6 271/1/6
f 269/1/6 270/1/6 272/1/6
f 257/1/6 271/1/6 273/1/6
f 271/1/6 272/1/6 273/1/6
f 272/1/6 270/1/6 274/1/6
f 273/1/6 272/1/6 274/1/6
f 268/1/6 258/1/6 274/1/6
f 270/1/6 268/1/6 274/1/6
f 277/1/6 278/1/6 279/1/6
f 279/1/6 278/1/6 280/1/6
f 277/1/6 279/1/6 281/1/6
f 277/1/6 281/1/6 283/1/6
f 281/1/6 282/1/6 283/1/6
f 283/1/6 282/1/6 284/1/6
f 275/1/6 276/1/6 285/1/6
f 285/1/6 276/1/6 286/1/6
f 277/1/6 283/1/6 287/1/6
f 287/1/6 283/1/6 288/1/6
f 277/1/6 287/1/6 289/1/6
f 289/1/6 287/1/6 290/1/6
f 291/1/6 292/1/6 293/1/6
f 293/1/6 292/1/6 294/1/6
f 295/1/6 296/1/6 297/1/6
f 297/1/6 296/1/6 298/1/6
f 299/2/6 300/2/6 301/2/6
f 301/2/6 300/2/6 302/2/6
f 299/2/6 301/2/6 303/2/6
f 299/2/6 303/2/6 305/2/6
f 303/2/6 304/2/6 305/2/6
f 305/2/6 304/2/6 306/2/6
f 307/2/6 308/2/6 309/2/6
f 309/2/6 308/2/6 310/2/6
