# MagicaVoxel @ Ephtracy

# group
o 

# material
mtllib Tree2.mtl
usemtl palette

# normals
vn -1 0 0
vn 1 0 0
vn 0 0 1
vn 0 0 -1
vn 0 -1 0
vn 0 1 0

# texcoords
vt 0.369141 0.5
vt 0.373047 0.5
vt 0.767578 0.5
vt 0.791016 0.5

# verts
v 0 2 0
v 0 2 -1
v 0 2.4 -0.4
v 0 2.4 -0.6
v 0 2.5 0
v 0 2.5 -0.4
v 0 2.5 -0.6
v 0 2.5 -1
v 0.2 2.5 -0.3
v 0.2 2.5 -0.4
v 0.2 2.5 -0.5
v 0.2 2.5 -0.6
v 0.2 2.6 -0.3
v 0.2 2.6 -0.4
v 0.2 2.6 -0.5
v 0.2 2.6 -0.6
v 0.2 3.1 -0.5
v 0.2 3.1 -0.6
v 0.2 3.2 -0.5
v 0.2 3.2 -0.6
v 0.3 2.5 -0.2
v 0.3 2.5 -0.3
v 0.3 2.5 -0.4
v 0.3 2.5 -0.5
v 0.3 2.5 -0.6
v 0.3 2.5 -0.8
v 0.3 2.6 -0.2
v 0.3 2.6 -0.3
v 0.3 2.6 -0.4
v 0.3 2.6 -0.5
v 0.3 2.6 -0.6
v 0.3 2.6 -0.8
v 0.3 3.2 -0.3
v 0.3 3.2 -0.5
v 0.3 3.2 -0.6
v 0.3 3.2 -0.7
v 0.3 3.3 -0.4
v 0.3 3.3 -0.6
v 0.3 3.5 -0.3
v 0.3 3.5 -0.4
v 0.3 3.5 -0.6
v 0.3 3.5 -0.7
v 0.4 2.6 -0.4
v 0.4 2.6 -0.6
v 0.4 3.1 -0.5
v 0.4 3.1 -0.6
v 0.4 3.2 -0.4
v 0.4 3.2 -0.5
v 0.4 3.3 -0.5
v 0.4 3.3 -0.6
v 0.4 3.5 -0.6
v 0.4 3.9 -0.5
v 0.4 3.9 -0.6
v 0.6 2.5 -0.6
v 0.6 2.5 -0.7
v 0.6 2.6 -0.6
v 0.6 2.6 -0.7
v 0.6 3.3 -0.5
v 0.6 3.3 -0.6
v 0.6 3.4 -0.5
v 0.6 3.4 -0.6
v 0.7 2.5 -0.7
v 0.7 2.5 -0.8
v 0.7 2.6 -0.7
v 0.7 2.6 -0.8
v 0.4 2.5 -0.7
v 0.4 2.5 -0.8
v 0.4 2.6 -0.7
v 0.4 2.6 -0.8
v 0.4 3.2 -0.3
v 0.4 3.2 -0.4
v 0.4 3.2 -0.5
v 0.4 3.2 -0.6
v 0.4 3.2 -0.7
v 0.4 3.3 -0.4
v 0.4 3.3 -0.5
v 0.4 3.5 -0.3
v 0.4 3.5 -0.4
v 0.4 3.5 -0.6
v 0.4 3.5 -0.7
v 0.5 2.5 -0.6
v 0.5 2.5 -0.7
v 0.5 2.6 -0.6
v 0.5 2.6 -0.7
v 0.5 3.1 -0.4
v 0.5 3.1 -0.5
v 0.5 3.2 -0.4
v 0.5 3.2 -0.5
v 0.5 3.3 -0.5
v 0.5 3.3 -0.6
v 0.5 3.9 -0.5
v 0.5 3.9 -0.6
v 0.6 2.6 -0.4
v 0.6 2.6 -0.6
v 0.6 3.1 -0.4
v 0.6 3.1 -0.5
v 0.6 3.2 -0.5
v 0.6 3.2 -0.6
v 0.7 2.5 -0.2
v 0.7 2.5 -0.4
v 0.7 2.5 -0.5
v 0.7 2.5 -0.7
v 0.7 2.6 -0.2
v 0.7 2.6 -0.4
v 0.7 2.6 -0.5
v 0.7 2.6 -0.7
v 0.7 3.2 -0.5
v 0.7 3.2 -0.6
v 0.7 3.4 -0.5
v 0.7 3.4 -0.6
v 0.8 2.5 -0.4
v 0.8 2.5 -0.5
v 0.8 2.5 -0.7
v 0.8 2.5 -0.8
v 0.8 2.6 -0.4
v 0.8 2.6 -0.5
v 0.8 2.6 -0.7
v 0.8 2.6 -0.8
v 1 2 0
v 1 2 -0.4
v 1 2 -0.7
v 1 2 -1
v 1 2.4 0
v 1 2.4 -0.1
v 1 2.4 -0.7
v 1 2.4 -1
v 1 2.5 0
v 1 2.5 -0.1
v 1 2.5 -0.4
v 1 2.5 -1
v 0 2 0
v 0 2.5 0
v 0.4 2.4 0
v 0.4 2.5 0
v 0.6 2 0
v 0.6 2.4 0
v 0.6 2.5 0
v 0.7 2.4 0
v 0.7 2.5 0
v 0.8 2.4 0
v 0.8 2.5 0
v 1 2 0
v 1 2.4 0
v 1 2.5 0
v 0.3 2.5 -0.2
v 0.3 2.6 -0.2
v 0.7 2.5 -0.2
v 0.7 2.6 -0.2
v 0.2 2.5 -0.3
v 0.2 2.6 -0.3
v 0.3 2.5 -0.3
v 0.3 2.6 -0.3
v 0.3 3.2 -0.3
v 0.3 3.5 -0.3
v 0.4 3.2 -0.3
v 0.4 3.5 -0.3
v 0.4 2.6 -0.4
v 0.4 3.2 -0.4
v 0.5 3.1 -0.4
v 0.5 3.2 -0.4
v 0.6 2.6 -0.4
v 0.6 3.1 -0.4
v 0.7 2.5 -0.4
v 0.7 2.6 -0.4
v 0.8 2.5 -0.4
v 0.8 2.6 -0.4
v 0.2 2.5 -0.5
v 0.2 2.6 -0.5
v 0.2 3.1 -0.5
v 0.2 3.2 -0.5
v 0.3 2.5 -0.5
v 0.3 2.6 -0.5
v 0.3 3.2 -0.5
v 0.4 3.1 -0.5
v 0.4 3.2 -0.5
v 0.4 3.3 -0.5
v 0.4 3.9 -0.5
v 0.5 3.1 -0.5
v 0.5 3.2 -0.5
v 0.5 3.3 -0.5
v 0.5 3.9 -0.5
v 0.6 3.1 -0.5
v 0.6 3.2 -0.5
v 0.6 3.3 -0.5
v 0.6 3.4 -0.5
v 0.7 3.2 -0.5
v 0.7 3.4 -0.5
v 0.3 3.3 -0.6
v 0.3 3.5 -0.6
v 0.4 3.3 -0.6
v 0.4 3.5 -0.6
v 0.7 2.5 -0.7
v 0.7 2.6 -0.7
v 0.8 2.5 -0.7
v 0.8 2.6 -0.7
v 0.2 2.5 -0.4
v 0.2 2.6 -0.4
v 0.3 2.5 -0.4
v 0.3 2.6 -0.4
v 0.3 3.3 -0.4
v 0.3 3.5 -0.4
v 0.4 3.3 -0.4
v 0.4 3.5 -0.4
v 0.7 2.5 -0.5
v 0.7 2.6 -0.5
v 0.8 2.5 -0.5
v 0.8 2.6 -0.5
v 0.2 2.5 -0.6
v 0.2 2.6 -0.6
v 0.2 3.1 -0.6
v 0.2 3.2 -0.6
v 0.3 2.5 -0.6
v 0.3 2.6 -0.6
v 0.3 3.2 -0.6
v 0.4 2.6 -0.6
v 0.4 3.1 -0.6
v 0.4 3.2 -0.6
v 0.4 3.5 -0.6
v 0.4 3.9 -0.6
v 0.5 2.5 -0.6
v 0.5 2.6 -0.6
v 0.5 3.3 -0.6
v 0.5 3.9 -0.6
v 0.6 2.5 -0.6
v 0.6 2.6 -0.6
v 0.6 3.2 -0.6
v 0.6 3.3 -0.6
v 0.6 3.4 -0.6
v 0.7 3.2 -0.6
v 0.7 3.4 -0.6
v 0.3 3.2 -0.7
v 0.3 3.5 -0.7
v 0.4 2.5 -0.7
v 0.4 2.6 -0.7
v 0.4 3.2 -0.7
v 0.4 3.5 -0.7
v 0.5 2.5 -0.7
v 0.5 2.6 -0.7
v 0.6 2.5 -0.7
v 0.6 2.6 -0.7
v 0.7 2.5 -0.7
v 0.7 2.6 -0.7
v 0.3 2.5 -0.8
v 0.3 2.6 -0.8
v 0.4 2.5 -0.8
v 0.4 2.6 -0.8
v 0.7 2.5 -0.8
v 0.7 2.6 -0.8
v 0.8 2.5 -0.8
v 0.8 2.6 -0.8
v 0 2 -1
v 0 2.5 -1
v 0.5 2.4 -1
v 0.5 2.5 -1
v 0.6 2 -1
v 0.6 2.4 -1
v 0.6 2.5 -1
v 0.8 2 -1
v 0.8 2.4 -1
v 0.9 2 -1
v 0.9 2.4 -1
v 1 2 -1
v 1 2.4 -1
v 1 2.5 -1
v 0 2 0
v 0.6 2 0
v 1 2 0
v 0.6 2 -0.4
v 1 2 -0.4
v 0.6 2 -0.6
v 0.8 2 -0.6
v 0.9 2 -0.7
v 1 2 -0.7
v 0 2 -1
v 0.6 2 -1
v 0.8 2 -1
v 0.9 2 -1
v 1 2 -1
v 0.2 3.1 -0.5
v 0.4 3.1 -0.5
v 0.2 3.1 -0.6
v 0.4 3.1 -0.6
v 0.3 3.2 -0.3
v 0.4 3.2 -0.3
v 0.4 3.2 -0.4
v 0.3 3.2 -0.5
v 0.4 3.2 -0.5
v 0.6 3.2 -0.5
v 0.7 3.2 -0.5
v 0.3 3.2 -0.6
v 0.4 3.2 -0.6
v 0.6 3.2 -0.6
v 0.7 3.2 -0.6
v 0.3 3.2 -0.7
v 0.4 3.2 -0.7
v 0 2.5 0
v 0.4 2.5 0
v 0.6 2.5 0
v 0.7 2.5 0
v 0.8 2.5 0
v 1 2.5 0
v 0.2 2.5 -0.1
v 0.4 2.5 -0.1
v 0.6 2.5 -0.1
v 0.7 2.5 -0.1
v 0.9 2.5 -0.1
v 1 2.5 -0.1
v 0.1 2.5 -0.2
v 0.2 2.5 -0.2
v 0.3 2.5 -0.2
v 0.7 2.5 -0.2
v 0.8 2.5 -0.2
v 0.9 2.5 -0.2
v 0.2 2.5 -0.3
v 0.3 2.5 -0.3
v 0 2.5 -0.4
v 0.1 2.5 -0.4
v 0.2 2.5 -0.4
v 0.3 2.5 -0.4
v 0.7 2.5 -0.4
v 0.8 2.5 -0.4
v 0.9 2.5 -0.4
v 1 2.5 -0.4
v 0.1 2.5 -0.5
v 0.2 2.5 -0.5
v 0.3 2.5 -0.5
v 0.7 2.5 -0.5
v 0.8 2.5 -0.5
v 0.9 2.5 -0.5
v 0 2.5 -0.6
v 0.1 2.5 -0.6
v 0.2 2.5 -0.6
v 0.3 2.5 -0.6
v 0.5 2.5 -0.6
v 0.6 2.5 -0.6
v 0.8 2.5 -0.6
v 0.9 2.5 -0.6
v 0.1 2.5 -0.7
v 0.2 2.5 -0.7
v 0.4 2.5 -0.7
v 0.5 2.5 -0.7
v 0.6 2.5 -0.7
v 0.7 2.5 -0.7
v 0.8 2.5 -0.7
v 0.3 2.5 -0.8
v 0.4 2.5 -0.8
v 0.6 2.5 -0.8
v 0.7 2.5 -0.8
v 0.8 2.5 -0.8
v 0.2 2.5 -0.9
v 0.5 2.5 -0.9
v 0.6 2.5 -0.9
v 0.7 2.5 -0.9
v 0.9 2.5 -0.9
v 0 2.5 -1
v 0.5 2.5 -1
v 0.6 2.5 -1
v 1 2.5 -1
v 0.3 2.6 -0.2
v 0.7 2.6 -0.2
v 0.2 2.6 -0.3
v 0.3 2.6 -0.3
v 0.2 2.6 -0.4
v 0.3 2.6 -0.4
v 0.4 2.6 -0.4
v 0.6 2.6 -0.4
v 0.7 2.6 -0.4
v 0.8 2.6 -0.4
v 0.2 2.6 -0.5
v 0.3 2.6 -0.5
v 0.7 2.6 -0.5
v 0.8 2.6 -0.5
v 0.2 2.6 -0.6
v 0.3 2.6 -0.6
v 0.4 2.6 -0.6
v 0.5 2.6 -0.6
v 0.6 2.6 -0.6
v 0.4 2.6 -0.7
v 0.5 2.6 -0.7
v 0.6 2.6 -0.7
v 0.7 2.6 -0.7
v 0.8 2.6 -0.7
v 0.3 2.6 -0.8
v 0.4 2.6 -0.8
v 0.7 2.6 -0.8
v 0.8 2.6 -0.8
v 0.5 3.1 -0.4
v 0.6 3.1 -0.4
v 0.5 3.1 -0.5
v 0.6 3.1 -0.5
v 0.4 3.2 -0.4
v 0.5 3.2 -0.4
v 0.2 3.2 -0.5
v 0.3 3.2 -0.5
v 0.4 3.2 -0.5
v 0.5 3.2 -0.5
v 0.2 3.2 -0.6
v 0.3 3.2 -0.6
v 0.3 3.3 -0.4
v 0.4 3.3 -0.4
v 0.4 3.3 -0.5
v 0.5 3.3 -0.5
v 0.6 3.3 -0.5
v 0.3 3.3 -0.6
v 0.4 3.3 -0.6
v 0.5 3.3 -0.6
v 0.6 3.3 -0.6
v 0.6 3.4 -0.5
v 0.7 3.4 -0.5
v 0.6 3.4 -0.6
v 0.7 3.4 -0.6
v 0.3 3.5 -0.3
v 0.4 3.5 -0.3
v 0.3 3.5 -0.4
v 0.4 3.5 -0.4
v 0.3 3.5 -0.6
v 0.4 3.5 -0.6
v 0.3 3.5 -0.7
v 0.4 3.5 -0.7
v 0.4 3.9 -0.5
v 0.5 3.9 -0.5
v 0.4 3.9 -0.6
v 0.5 3.9 -0.6

# faces
f 3/1/1 2/1/1 1/1/1
f 4/1/1 2/1/1 3/1/1
f 5/1/1 3/1/1 1/1/1
f 6/4/1 4/4/1 3/4/1
f 6/1/1 3/1/1 5/1/1
f 7/1/1 2/1/1 4/1/1
f 7/4/1 4/4/1 6/4/1
f 8/1/1 2/1/1 7/1/1
f 13/2/1 10/2/1 9/2/1
f 14/2/1 10/2/1 13/2/1
f 15/2/1 12/2/1 11/2/1
f 16/2/1 12/2/1 15/2/1
f 19/2/1 18/2/1 17/2/1
f 20/2/1 18/2/1 19/2/1
f 27/2/1 22/2/1 21/2/1
f 28/2/1 22/2/1 27/2/1
f 29/2/1 24/2/1 23/2/1
f 30/2/1 24/2/1 29/2/1
f 31/2/1 26/2/1 25/2/1
f 32/2/1 26/2/1 31/2/1
f 37/2/1 34/2/1 33/2/1
f 37/2/1 36/2/1 35/2/1
f 37/2/1 35/2/1 34/2/1
f 38/2/1 36/2/1 37/2/1
f 39/2/1 37/2/1 33/2/1
f 40/2/1 37/2/1 39/2/1
f 41/2/1 36/2/1 38/2/1
f 42/2/1 36/2/1 41/2/1
f 45/2/1 44/2/1 43/2/1
f 46/2/1 44/2/1 45/2/1
f 47/2/1 45/2/1 43/2/1
f 48/2/1 45/2/1 47/2/1
f 51/2/1 50/2/1 49/2/1
f 52/2/1 51/2/1 49/2/1
f 53/2/1 51/2/1 52/2/1
f 56/2/1 55/2/1 54/2/1
f 57/2/1 55/2/1 56/2/1
f 60/2/1 59/2/1 58/2/1
f 61/2/1 59/2/1 60/2/1
f 64/2/1 63/2/1 62/2/1
f 65/2/1 63/2/1 64/2/1
f 66/2/2 67/2/2 68/2/2
f 68/2/2 67/2/2 69/2/2
f 70/2/2 71/2/2 75/2/2
f 71/2/2 72/2/2 75/2/2
f 75/2/2 72/2/2 76/2/2
f 70/2/2 75/2/2 77/2/2
f 77/2/2 75/2/2 78/2/2
f 73/2/2 74/2/2 79/2/2
f 79/2/2 74/2/2 80/2/2
f 81/2/2 82/2/2 83/2/2
f 83/2/2 82/2/2 84/2/2
f 85/2/2 86/2/2 87/2/2
f 87/2/2 86/2/2 88/2/2
f 89/2/2 90/2/2 91/2/2
f 91/2/2 90/2/2 92/2/2
f 93/2/2 94/2/2 95/2/2
f 95/2/2 94/2/2 96/2/2
f 96/2/2 94/2/2 97/2/2
f 97/2/2 94/2/2 98/2/2
f 99/2/2 100/2/2 103/2/2
f 103/2/2 100/2/2 104/2/2
f 101/2/2 102/2/2 105/2/2
f 105/2/2 102/2/2 106/2/2
f 107/2/2 108/2/2 109/2/2
f 109/2/2 108/2/2 110/2/2
f 111/2/2 112/2/2 115/2/2
f 115/2/2 112/2/2 116/2/2
f 113/2/2 114/2/2 117/2/2
f 117/2/2 114/2/2 118/2/2
f 119/4/2 120/4/2 123/4/2
f 123/4/2 120/4/2 124/4/2
f 121/4/2 122/4/2 125/4/2
f 120/1/2 121/1/2 125/1/2
f 125/4/2 122/4/2 126/4/2
f 123/3/2 124/3/2 127/3/2
f 124/4/2 120/4/2 128/4/2
f 127/3/2 124/3/2 128/3/2
f 120/1/2 125/1/2 129/1/2
f 128/4/2 120/4/2 129/4/2
f 125/1/2 126/1/2 129/1/2
f 129/1/2 126/1/2 130/1/2
f 133/1/3 132/1/3 131/1/3
f 134/1/3 132/1/3 133/1/3
f 135/1/3 133/1/3 131/1/3
f 136/4/3 134/4/3 133/4/3
f 136/1/3 133/1/3 135/1/3
f 137/4/3 134/4/3 136/4/3
f 138/4/3 136/4/3 135/4/3
f 138/3/3 137/3/3 136/3/3
f 139/3/3 137/3/3 138/3/3
f 140/4/3 138/4/3 135/4/3
f 140/4/3 139/4/3 138/4/3
f 141/4/3 139/4/3 140/4/3
f 142/4/3 140/4/3 135/4/3
f 143/3/3 141/3/3 140/3/3
f 143/4/3 140/4/3 142/4/3
f 144/3/3 141/3/3 143/3/3
f 147/2/3 146/2/3 145/2/3
f 148/2/3 146/2/3 147/2/3
f 151/2/3 150/2/3 149/2/3
f 152/2/3 150/2/3 151/2/3
f 155/2/3 154/2/3 153/2/3
f 156/2/3 154/2/3 155/2/3
f 159/2/3 158/2/3 157/2/3
f 160/2/3 158/2/3 159/2/3
f 161/2/3 159/2/3 157/2/3
f 162/2/3 159/2/3 161/2/3
f 165/2/3 164/2/3 163/2/3
f 166/2/3 164/2/3 165/2/3
f 171/2/3 168/2/3 167/2/3
f 172/2/3 168/2/3 171/2/3
f 173/2/3 170/2/3 169/2/3
f 174/2/3 173/2/3 169/2/3
f 175/2/3 173/2/3 174/2/3
f 179/2/3 177/2/3 176/2/3
f 179/2/3 176/2/3 175/2/3
f 180/2/3 177/2/3 179/2/3
f 181/2/3 177/2/3 180/2/3
f 182/2/3 179/2/3 178/2/3
f 182/2/3 180/2/3 179/2/3
f 183/2/3 180/2/3 182/2/3
f 184/2/3 180/2/3 183/2/3
f 186/2/3 185/2/3 184/2/3
f 186/2/3 184/2/3 183/2/3
f 187/2/3 185/2/3 186/2/3
f 190/2/3 189/2/3 188/2/3
f 191/2/3 189/2/3 190/2/3
f 194/2/3 193/2/3 192/2/3
f 195/2/3 193/2/3 194/2/3
f 196/2/4 197/2/4 198/2/4
f 198/2/4 197/2/4 199/2/4
f 200/2/4 201/2/4 202/2/4
f 202/2/4 201/2/4 203/2/4
f 204/2/4 205/2/4 206/2/4
f 206/2/4 205/2/4 207/2/4
f 208/2/4 209/2/4 212/2/4
f 212/2/4 209/2/4 213/2/4
f 210/2/4 211/2/4 214/2/4
f 210/2/4 214/2/4 216/2/4
f 216/2/4 214/2/4 217/2/4
f 216/2/4 217/2/4 221/2/4
f 218/2/4 219/2/4 221/2/4
f 217/2/4 218/2/4 221/2/4
f 215/2/4 216/2/4 221/2/4
f 221/2/4 219/2/4 222/2/4
f 222/2/4 219/2/4 223/2/4
f 220/2/4 221/2/4 224/2/4
f 221/2/4 222/2/4 224/2/4
f 224/2/4 222/2/4 225/2/4
f 225/2/4 222/2/4 226/2/4
f 226/2/4 222/2/4 227/2/4
f 227/2/4 228/2/4 229/2/4
f 226/2/4 227/2/4 229/2/4
f 229/2/4 228/2/4 230/2/4
f 231/2/4 232/2/4 235/2/4
f 235/2/4 232/2/4 236/2/4
f 233/2/4 234/2/4 237/2/4
f 237/2/4 234/2/4 238/2/4
f 239/2/4 240/2/4 241/2/4
f 241/2/4 240/2/4 242/2/4
f 243/2/4 244/2/4 245/2/4
f 245/2/4 244/2/4 246/2/4
f 247/2/4 248/2/4 249/2/4
f 249/2/4 248/2/4 250/2/4
f 251/1/4 252/1/4 253/1/4
f 253/1/4 252/1/4 254/1/4
f 251/1/4 253/1/4 255/1/4
f 253/3/4 254/3/4 256/3/4
f 255/1/4 253/1/4 256/1/4
f 256/3/4 254/3/4 257/3/4
f 255/4/4 256/4/4 258/4/4
f 256/1/4 257/1/4 259/1/4
f 258/4/4 256/4/4 259/4/4
f 258/1/4 259/1/4 260/1/4
f 259/1/4 257/1/4 261/1/4
f 260/1/4 259/1/4 261/1/4
f 260/4/4 261/4/4 262/4/4
f 261/1/4 257/1/4 263/1/4
f 262/4/4 261/4/4 263/4/4
f 263/1/4 257/1/4 264/1/4
f 268/1/5 266/1/5 265/1/5
f 268/4/5 267/4/5 266/4/5
f 269/4/5 267/4/5 268/4/5
f 270/1/5 268/1/5 265/1/5
f 270/1/5 269/1/5 268/1/5
f 271/1/5 269/1/5 270/1/5
f 272/1/5 269/1/5 271/1/5
f 273/1/5 269/1/5 272/1/5
f 274/1/5 270/1/5 265/1/5
f 275/4/5 271/4/5 270/4/5
f 275/1/5 270/1/5 274/1/5
f 276/1/5 272/1/5 271/1/5
f 276/4/5 271/4/5 275/4/5
f 277/4/5 273/4/5 272/4/5
f 277/1/5 272/1/5 276/1/5
f 278/4/5 273/4/5 277/4/5
f 281/2/5 280/2/5 279/2/5
f 282/2/5 280/2/5 281/2/5
f 285/2/5 284/2/5 283/2/5
f 286/2/5 285/2/5 283/2/5
f 287/2/5 285/2/5 286/2/5
f 292/2/5 289/2/5 288/2/5
f 293/2/5 289/2/5 292/2/5
f 294/2/5 291/2/5 290/2/5
f 295/2/5 291/2/5 294/2/5
f 296/1/6 297/1/6 302/1/6
f 297/4/6 298/4/6 303/4/6
f 302/1/6 297/1/6 303/1/6
f 298/3/6 299/3/6 304/3/6
f 303/4/6 298/4/6 304/4/6
f 299/4/6 300/4/6 305/4/6
f 304/3/6 299/3/6 305/3/6
f 300/3/6 301/3/6 306/3/6
f 306/3/6 301/3/6 307/3/6
f 296/1/6 302/1/6 308/1/6
f 302/4/6 303/4/6 309/4/6
f 308/1/6 302/1/6 309/1/6
f 303/4/6 304/4/6 309/4/6
f 304/4/6 305/4/6 309/4/6
f 309/4/6 305/4/6 310/4/6
f 305/4/6 300/4/6 311/4/6
f 310/4/6 305/4/6 311/4/6
f 300/3/6 306/3/6 312/3/6
f 311/4/6 300/4/6 312/4/6
f 306/4/6 307/4/6 313/4/6
f 312/3/6 306/3/6 313/3/6
f 309/4/6 310/4/6 314/4/6
f 308/4/6 309/4/6 314/4/6
f 314/4/6 310/4/6 315/4/6
f 296/1/6 308/1/6 316/1/6
f 308/4/6 314/4/6 317/4/6
f 316/1/6 308/1/6 317/1/6
f 317/4/6 314/4/6 318/4/6
f 311/4/6 312/4/6 320/4/6
f 312/4/6 313/4/6 320/4/6
f 320/4/6 313/4/6 321/4/6
f 313/4/6 307/4/6 322/4/6
f 321/4/6 313/4/6 322/4/6
f 322/4/6 307/4/6 323/4/6
f 318/4/6 319/4/6 324/4/6
f 317/4/6 318/4/6 324/4/6
f 316/4/6 317/4/6 324/4/6
f 324/4/6 319/4/6 325/4/6
f 325/4/6 319/4/6 326/4/6
f 321/4/6 322/4/6 328/4/6
f 322/1/6 323/1/6 329/1/6
f 328/4/6 322/4/6 329/4/6
f 316/4/6 324/4/6 330/4/6
f 324/3/6 325/3/6 331/3/6
f 330/4/6 324/4/6 331/4/6
f 331/3/6 325/3/6 332/3/6
f 327/4/6 328/4/6 336/4/6
f 328/1/6 329/1/6 336/1/6
f 329/1/6 323/1/6 337/1/6
f 336/1/6 329/1/6 337/1/6
f 332/4/6 333/4/6 338/4/6
f 330/1/6 331/1/6 338/1/6
f 331/4/6 332/4/6 338/4/6
f 338/4/6 333/4/6 339/4/6
f 334/4/6 335/4/6 341/4/6
f 341/4/6 335/4/6 342/4/6
f 327/4/6 336/4/6 343/4/6
f 336/4/6 337/4/6 343/4/6
f 343/4/6 337/4/6 344/4/6
f 339/4/6 333/4/6 345/4/6
f 341/4/6 342/4/6 346/4/6
f 340/4/6 341/4/6 346/4/6
f 342/4/6 343/4/6 346/4/6
f 346/4/6 343/4/6 347/4/6
f 347/4/6 343/4/6 348/4/6
f 344/4/6 337/4/6 349/4/6
f 339/4/6 345/4/6 350/4/6
f 338/1/6 339/1/6 350/1/6
f 345/4/6 346/4/6 350/4/6
f 346/4/6 347/4/6 350/4/6
f 350/4/6 347/4/6 351/4/6
f 347/1/6 348/1/6 352/1/6
f 351/4/6 347/4/6 352/4/6
f 348/4/6 349/4/6 353/4/6
f 352/1/6 348/1/6 353/1/6
f 337/1/6 323/1/6 354/1/6
f 353/4/6 349/4/6 354/4/6
f 349/4/6 337/4/6 354/4/6
f 350/1/6 351/1/6 355/1/6
f 330/1/6 338/1/6 355/1/6
f 338/1/6 350/1/6 355/1/6
f 351/3/6 352/3/6 356/3/6
f 355/1/6 351/1/6 356/1/6
f 352/1/6 353/1/6 357/1/6
f 356/3/6 352/3/6 357/3/6
f 353/1/6 354/1/6 357/1/6
f 354/1/6 323/1/6 358/1/6
f 357/1/6 354/1/6 358/1/6
f 359/2/6 360/2/6 362/2/6
f 361/2/6 362/2/6 363/2/6
f 362/2/6 360/2/6 364/2/6
f 363/2/6 362/2/6 364/2/6
f 364/2/6 360/2/6 365/2/6
f 365/2/6 360/2/6 366/2/6
f 366/2/6 360/2/6 367/2/6
f 364/2/6 365/2/6 370/2/6
f 367/2/6 368/2/6 371/2/6
f 366/2/6 367/2/6 371/2/6
f 371/2/6 368/2/6 372/2/6
f 369/2/6 370/2/6 373/2/6
f 370/2/6 365/2/6 374/2/6
f 373/2/6 370/2/6 374/2/6
f 374/2/6 365/2/6 375/2/6
f 366/2/6 371/2/6 377/2/6
f 375/2/6 376/2/6 378/2/6
f 374/2/6 375/2/6 378/2/6
f 378/2/6 376/2/6 379/2/6
f 377/2/6 371/2/6 380/2/6
f 380/2/6 371/2/6 381/2/6
f 374/2/6 378/2/6 383/2/6
f 383/2/6 378/2/6 384/2/6
f 381/2/6 382/2/6 385/2/6
f 385/2/6 382/2/6 386/2/6
f 387/2/6 388/2/6 389/2/6
f 389/2/6 388/2/6 390/2/6
f 391/2/6 392/2/6 395/2/6
f 395/2/6 392/2/6 396/2/6
f 393/2/6 394/2/6 397/2/6
f 397/2/6 394/2/6 398/2/6
f 399/2/6 400/2/6 401/2/6
f 399/2/6 401/2/6 404/2/6
f 404/2/6 401/2/6 405/2/6
f 402/2/6 403/2/6 406/2/6
f 406/2/6 403/2/6 407/2/6
f 408/2/6 409/2/6 410/2/6
f 410/2/6 409/2/6 411/2/6
f 412/2/6 413/2/6 414/2/6
f 414/2/6 413/2/6 415/2/6
f 416/2/6 417/2/6 418/2/6
f 418/2/6 417/2/6 419/2/6
f 420/2/6 421/2/6 422/2/6
f 422/2/6 421/2/6 423/2/6
